<?xml version="1.0" encoding="UTF-8" standalone="no"?>
<svg xmlns="http://www.w3.org/2000/svg" xmlns:xlink="http://www.w3.org/1999/xlink" width="150.4pt" height="78.4pt">
  <defs>
    <linearGradient id="c">
      <stop offset="0"/>
      <stop offset="1" stop-color="#c9c9c9"/>
    </linearGradient>
    <linearGradient id="d">
      <stop offset="0" stop-color="#e7e2b8"/>
      <stop offset="1" stop-color="#e7e2b8" stop-opacity="0"/>
    </linearGradient>
    <linearGradient id="a">
      <stop offset="0" stop-color="#ffd1d1"/>
      <stop offset=".5" stop-color="#ff1d1d"/>
      <stop offset="1" stop-color="#6f0000"/>
    </linearGradient>
    <linearGradient id="b">
      <stop offset="0" stop-color="#939393"/>
      <stop offset="1" stop-color="#424242"/>
    </linearGradient>
    <linearGradient xlink:href="#a" id="e" x1="48.90625" x2="50.988335" y1="17.376184" y2="22.250591" gradientTransform="matrix(5.397521 0 0 5.184897 -106.517 -79.23792)" gradientUnits="userSpaceOnUse"/>
    <linearGradient xlink:href="#b" id="f" x1="46" x2="47.6875" y1="19.8125" y2="22.625" gradientTransform="matrix(5.397521 0 0 5.184897 -106.517 -79.23793)" gradientUnits="userSpaceOnUse"/>
    <linearGradient xlink:href="#c" id="h" x1="25.71875" x2="25.514589" y1="31.046875" y2="30.703125" gradientTransform="matrix(5.397521 0 0 5.184897 -107.3604 -78.58972)" gradientUnits="userSpaceOnUse"/>
    <radialGradient xlink:href="#d" id="g" cx="29.053354" cy="27.640751" r="3.2408544" fx="29.053354" fy="27.640751" gradientTransform="matrix(15.78 0 0 10.52387 -408.163 -223.8145)" gradientUnits="userSpaceOnUse"/>
  </defs>
  <g fill-rule="evenodd" color="#000">
    <path fill="#cb9022" stroke="#5c410c" stroke-width="5.2901402" d="m18.713737 89.271268 30.361061-29.16504L157.53121 9.5534622c17.54193-6.48111 27.99962 17.4990398 12.48176 25.9244998L61.893898 84.086368l-43.180161 5.1849z" overflow="visible" style="marker:none"/>
    <path fill="url(#e)" d="M130.97383 24.460052s7.75893.48608 10.79505 6.96721c3.12783 6.67691 0 13.77238 0 13.77238l27.15628-12.80022s7.83737-4.56979 3.54212-14.74455c-4.23658-10.0357599-14.50583-5.99504-14.50583-5.99504l-26.98762 12.80022z" overflow="visible" style="marker:none"/>
    <path fill="url(#f)" d="M130.97383 24.460049s7.75893.48609 10.79505 6.96721c3.12783 6.67691 0 13.77238 0 13.77238l10.79504-5.18489s4.46392-6.8382 1.18071-13.93442c-3.37346-7.29126-11.97575-6.80517-11.97575-6.80517l-10.79505 5.18489z" overflow="visible" style="marker:none"/>
    <path fill="url(#g)" d="m25.384843 85.544622 24.288847-23.33204c8.096275 4.212734 12.313088 11.179936 10.120344 19.281339l-34.409191 4.050701z" overflow="visible" style="marker:none"/>
    <path fill="url(#h)" d="m32.637761 78.253364-8.770969 8.263425 12.65044-1.620279c1.180711-3.726645-1.012034-5.508956-3.879471-6.643146z" overflow="visible" style="marker:none"/>
  </g>
</svg>